<svg width="18" height="18" viewBox="0 0 18 18" fill="none" xmlns="http://www.w3.org/2000/svg">
<g clip-path="url(#clip0_150_88)">
<path d="M13.5 9C12.7098 9.00092 11.9333 8.7935 11.2488 8.39865C10.5643 8.0038 9.99604 7.43547 9.60123 6.75096C9.20642 6.06645 8.99904 5.28995 9.00001 4.49974C9.00098 3.70953 9.21026 2.93354 9.60675 2.25H3.1815L3.15 1.986C3.08537 1.43895 2.82229 0.934615 2.41064 0.568578C1.99899 0.202541 1.46736 0.000234627 0.9165 0L0.75 0C0.551088 0 0.360322 0.0790176 0.21967 0.21967C0.0790176 0.360322 0 0.551088 0 0.75C0 0.948912 0.0790176 1.13968 0.21967 1.28033C0.360322 1.42098 0.551088 1.5 0.75 1.5H0.9165C1.1002 1.50002 1.2775 1.56747 1.41478 1.68954C1.55206 1.81161 1.63976 1.97981 1.66125 2.16225L2.69325 10.9373C2.80039 11.8498 3.23886 12.6913 3.92543 13.302C4.612 13.9127 5.49889 14.25 6.41775 14.25H14.25C14.4489 14.25 14.6397 14.171 14.7803 14.0303C14.921 13.8897 15 13.6989 15 13.5C15 13.3011 14.921 13.1103 14.7803 12.9697C14.6397 12.829 14.4489 12.75 14.25 12.75H6.41775C5.95341 12.7489 5.5008 12.6041 5.12201 12.3355C4.74321 12.067 4.45678 11.6878 4.302 11.25H13.2428C14.122 11.2501 14.9733 10.9412 15.6479 10.3773C16.3225 9.81348 16.7775 9.03052 16.9335 8.16525L17.112 7.176C16.6948 7.74162 16.1506 8.20136 15.5232 8.51817C14.8959 8.83499 14.2028 9.00003 13.5 9Z" fill="white"/>
<path d="M5.25 18C6.07843 18 6.75 17.3284 6.75 16.5C6.75 15.6716 6.07843 15 5.25 15C4.42157 15 3.75 15.6716 3.75 16.5C3.75 17.3284 4.42157 18 5.25 18Z" fill="white"/>
<path d="M12.75 18C13.5784 18 14.25 17.3284 14.25 16.5C14.25 15.6716 13.5784 15 12.75 15C11.9216 15 11.25 15.6716 11.25 16.5C11.25 17.3284 11.9216 18 12.75 18Z" fill="white"/>
<path d="M11.25 5.25H12.75V6.75C12.75 6.94891 12.829 7.13968 12.9697 7.28033C13.1103 7.42098 13.3011 7.5 13.5 7.5C13.6989 7.5 13.8897 7.42098 14.0303 7.28033C14.171 7.13968 14.25 6.94891 14.25 6.75V5.25H15.75C15.9489 5.25 16.1397 5.17098 16.2803 5.03033C16.421 4.88968 16.5 4.69891 16.5 4.5C16.5 4.30109 16.421 4.11032 16.2803 3.96967C16.1397 3.82902 15.9489 3.75 15.75 3.75H14.25V2.25C14.25 2.05109 14.171 1.86032 14.0303 1.71967C13.8897 1.57902 13.6989 1.5 13.5 1.5C13.3011 1.5 13.1103 1.57902 12.9697 1.71967C12.829 1.86032 12.75 2.05109 12.75 2.25V3.75H11.25C11.0511 3.75 10.8603 3.82902 10.7197 3.96967C10.579 4.11032 10.5 4.30109 10.5 4.5C10.5 4.69891 10.579 4.88968 10.7197 5.03033C10.8603 5.17098 11.0511 5.25 11.25 5.25Z" fill="white"/>
</g>
<defs>
<clipPath id="clip0_150_88">
<rect width="18" height="18" fill="white"/>
</clipPath>
</defs>
</svg>
