<svg width="90" height="22" viewBox="0 0 90 22" fill="none" xmlns="http://www.w3.org/2000/svg">
<g clip-path="url(#clip0_197_349)">
<path d="M23.6475 7.74528H32.7587V9.42569H29.1767V18.874H27.2057V9.42569H23.6392V7.74463H23.6469L23.6475 7.74528ZM32.3698 10.8156H34.0541V12.3711H34.0856C34.1415 12.1511 34.2444 11.9389 34.3954 11.7344C34.7185 11.2961 35.1557 10.9564 35.6587 10.7528C35.9141 10.6509 36.1862 10.5976 36.4609 10.5956C36.6667 10.5956 36.8184 10.6033 36.8981 10.6117C36.9772 10.6195 37.0562 10.635 37.1437 10.6428V12.3549C37.0147 12.3322 36.885 12.3139 36.7547 12.2999C36.6254 12.2845 36.4954 12.2767 36.3652 12.2766C36.063 12.2766 35.7776 12.3394 35.5076 12.4578C35.2376 12.5749 35.0068 12.7555 34.8088 12.9839C34.5975 13.2393 34.4357 13.5323 34.3318 13.8477C34.2129 14.1932 34.1569 14.5853 34.1569 15.0337V18.8663H32.3621V10.8156H32.3698ZM45.3973 18.8747H43.6339V17.7514H43.6018C43.3794 18.1603 43.0541 18.4826 42.6169 18.7259C42.1798 18.9692 41.7349 19.0947 41.2824 19.0947C40.2101 19.0947 39.4309 18.8359 38.9552 18.3092C38.4782 17.7831 38.2397 16.9898 38.2397 15.9293V10.8162H40.0352V15.7565C40.0352 16.4637 40.1702 16.9665 40.4486 17.257C40.7186 17.5476 41.1075 17.697 41.5999 17.697C41.9812 17.697 42.291 17.642 42.5449 17.5236C42.7995 17.4059 43.0059 17.257 43.1569 17.0603C43.3157 16.872 43.4269 16.6365 43.4989 16.3693C43.5697 16.102 43.6018 15.8115 43.6018 15.4977V10.824H45.3973V18.8747ZM48.4554 16.291C48.5113 16.8086 48.7093 17.171 49.0513 17.3826C49.4004 17.587 49.8137 17.697 50.2984 17.697C50.4656 17.697 50.6559 17.6809 50.8706 17.6576C51.0847 17.6336 51.291 17.5786 51.4742 17.5087C51.6645 17.4376 51.8149 17.3276 51.9422 17.1865C52.0618 17.0442 52.1171 16.8643 52.1094 16.6365C52.1083 16.5308 52.0852 16.4265 52.0414 16.3304C51.9977 16.2343 51.9343 16.1486 51.8554 16.0787C51.696 15.9299 51.498 15.8199 51.2512 15.7255C50.9762 15.6296 50.6947 15.5534 50.409 15.4977C50.0914 15.4349 49.7739 15.3637 49.4486 15.2932C49.1209 15.2219 48.7973 15.1326 48.4792 15.026C48.1808 14.9297 47.8994 14.7867 47.6454 14.6022C47.3978 14.4283 47.196 14.1964 47.0572 13.9266C46.9067 13.6516 46.8347 13.3139 46.8347 12.9056C46.8347 12.4656 46.9459 12.1045 47.1607 11.8056C47.3772 11.5091 47.6568 11.2651 47.979 11.0912C48.3253 10.907 48.6975 10.7771 49.0828 10.7062C49.4878 10.6357 49.8774 10.5962 50.2425 10.5962C50.6636 10.5962 51.0686 10.6435 51.4504 10.7302C51.8201 10.8098 52.1725 10.956 52.4906 11.1617C52.8004 11.3585 53.0544 11.6173 53.2614 11.9317C53.4677 12.2456 53.595 12.6306 53.6503 13.0783H51.7757C51.6883 12.6545 51.4974 12.364 51.1882 12.2223C50.8783 12.0735 50.5209 12.0023 50.1236 12.0023C49.9963 12.0023 49.8452 12.01 49.671 12.034C49.5031 12.0565 49.338 12.0959 49.1779 12.1517C49.0317 12.206 48.899 12.2916 48.789 12.4028C48.7356 12.4608 48.6941 12.5289 48.6669 12.603C48.6396 12.6772 48.6272 12.756 48.6302 12.835C48.6302 13.055 48.7093 13.2278 48.8604 13.3611C49.0114 13.4944 49.2101 13.6044 49.4563 13.6989C49.7025 13.7856 49.9809 13.8639 50.2984 13.9266C50.616 13.9894 50.9413 14.0599 51.2756 14.1311C51.6009 14.2016 51.9184 14.2961 52.2367 14.3977C52.5542 14.4999 52.8319 14.6416 53.0788 14.8222C53.325 15.0027 53.5237 15.2227 53.6741 15.4899C53.8252 15.7565 53.9049 16.0943 53.9049 16.487C53.9049 16.9659 53.7937 17.367 53.5706 17.7048C53.3488 18.0348 53.0627 18.3092 52.713 18.5136C52.3469 18.7259 51.9502 18.8796 51.5372 18.9692C51.1171 19.0622 50.6882 19.1095 50.2579 19.1102C49.7761 19.1157 49.2957 19.0576 48.8289 18.9375C48.3917 18.8197 48.0105 18.6469 47.6929 18.4198C47.3791 18.1903 47.121 17.892 46.9382 17.5476C46.7557 17.202 46.6599 16.7853 46.6444 16.3065H48.4554V16.291ZM54.3812 10.8169H55.7396V8.39686H57.5351V10.8169H59.1551V12.1433H57.5357V16.4482C57.5357 16.6359 57.5434 16.7937 57.5595 16.9348C57.5749 17.0687 57.6148 17.1865 57.6707 17.2803C57.7315 17.3789 57.8238 17.4538 57.9324 17.4926C58.0519 17.5398 58.2024 17.5637 58.4094 17.5637C58.536 17.5637 58.6633 17.5637 58.7906 17.5553C58.9179 17.5476 59.0445 17.532 59.1718 17.5003V18.8747C58.9732 18.8986 58.7745 18.9142 58.5919 18.9375C58.3995 18.96 58.2058 18.9706 58.0121 18.9692C57.5357 18.9692 57.1545 18.9219 56.8678 18.8359C56.5824 18.7492 56.3516 18.6159 56.1928 18.4431C56.0257 18.2703 55.9228 18.0581 55.8592 17.7986C55.7973 17.5068 55.7628 17.2098 55.7563 16.9115V12.1582H54.3979V10.8149H54.3819L54.3812 10.8169ZM60.426 10.8169H62.1264V11.9078H62.1585C62.4118 11.4367 62.7615 11.1067 63.2141 10.9029C63.6767 10.6959 64.1781 10.5913 64.6843 10.5962C65.3272 10.5962 65.8832 10.7062 66.3602 10.934C66.8366 11.154 67.2339 11.4607 67.5514 11.8528C67.869 12.2456 68.0998 12.7011 68.2586 13.22C68.4204 13.7599 68.5008 14.3211 68.4971 14.8849C68.4971 15.4265 68.4257 15.9526 68.2824 16.456C68.1507 16.9416 67.9327 17.3991 67.6389 17.8064C67.3501 18.199 66.975 18.5191 66.5428 18.7414C66.0979 18.9769 65.5817 19.0947 64.9781 19.0947C64.7142 19.0944 64.4509 19.0706 64.1912 19.0235C63.9322 18.9765 63.6793 18.9003 63.4372 18.7964C63.1967 18.6954 62.9717 18.5603 62.7692 18.3952C62.5694 18.2347 62.3952 18.0442 62.253 17.8303H62.2209V21.8518H60.426V10.8156V10.8169ZM66.7016 14.8532C66.7019 14.495 66.6539 14.1385 66.5589 13.7933C66.4709 13.4663 66.3254 13.1578 66.1294 12.8823C65.9435 12.6202 65.7022 12.4028 65.4229 12.2456C65.123 12.0824 64.7867 11.9987 64.4458 12.0023C63.6911 12.0023 63.1189 12.2611 62.7377 12.78C62.3565 13.2983 62.1656 13.99 62.1656 14.8532C62.1656 15.2615 62.2138 15.6387 62.3167 15.9843C62.4195 16.3298 62.5629 16.6287 62.7692 16.8798C62.9685 17.1315 63.2064 17.3276 63.4847 17.4686C63.7624 17.6181 64.0884 17.6886 64.4535 17.6886C64.8669 17.6886 65.2082 17.6026 65.4943 17.4376C65.7713 17.2772 66.0099 17.0573 66.1931 16.7937C66.3757 16.5265 66.5113 16.2276 66.5904 15.8905C66.6635 15.5496 66.7008 15.2019 66.7016 14.8532ZM69.8709 7.74528H71.6664V9.42633H69.8709V7.74528ZM69.8709 10.8162H71.6664V18.8747H69.8709V10.8162ZM73.2709 7.74528H75.0664V18.8747H73.2709V7.74528ZM80.5712 19.0947C79.9194 19.0947 79.3395 18.9847 78.8317 18.7731C78.3448 18.5721 77.9041 18.2726 77.5369 17.8931C77.18 17.506 76.9066 17.0486 76.734 16.5498C76.5451 15.9992 76.4511 15.4202 76.4563 14.8377C76.4563 14.2249 76.5514 13.66 76.734 13.1411C76.9067 12.6426 77.1801 12.1854 77.5369 11.7985C77.886 11.4212 78.3232 11.1307 78.8317 10.9185C79.3395 10.7062 79.9194 10.5962 80.5712 10.5962C81.2224 10.5962 81.8023 10.7062 82.3108 10.9185C82.8193 11.1307 83.2481 11.4296 83.6055 11.7985C83.9624 12.1853 84.2356 12.6425 84.4078 13.1411C84.5904 13.6594 84.6855 14.2249 84.6855 14.8377C84.6855 15.4589 84.5904 16.0315 84.4078 16.5498C84.2357 17.0487 83.9625 17.5061 83.6055 17.8931C83.2558 18.2703 82.8193 18.5609 82.3108 18.7731C81.8023 18.9847 81.2224 19.0947 80.5712 19.0947ZM80.5712 17.6886C80.9685 17.6886 81.3176 17.6026 81.6114 17.4376C81.8977 17.2771 82.1448 17.0543 82.3346 16.7853C82.5249 16.5187 82.6599 16.212 82.7557 15.8743C82.8431 15.5365 82.8907 15.191 82.8907 14.8377C82.8907 14.4922 82.8431 14.1544 82.7557 13.8089C82.6738 13.4811 82.5309 13.172 82.3346 12.8978C82.1444 12.6314 81.8973 12.4114 81.6114 12.254C81.3176 12.089 80.9685 12.0023 80.5712 12.0023C80.1739 12.0023 79.8242 12.089 79.5304 12.254C79.2464 12.4138 78.9999 12.6334 78.8079 12.8978C78.6143 13.1736 78.4717 13.4822 78.3868 13.8089C78.2988 14.1447 78.2532 14.4904 78.2512 14.8377C78.2512 15.191 78.2994 15.5365 78.3868 15.8743C78.4742 16.212 78.6169 16.5187 78.8079 16.7853C78.9982 17.0526 79.2367 17.2726 79.5304 17.4376C79.8242 17.6103 80.1739 17.6886 80.5712 17.6886ZM85.2101 10.8169H86.5684V8.39686H88.3639V10.8169H89.9839V12.1433H88.3639V16.4482C88.3639 16.6359 88.3717 16.7937 88.3871 16.9348C88.4032 17.0687 88.443 17.1865 88.4989 17.2803C88.5596 17.379 88.6519 17.4539 88.7606 17.4926C88.8802 17.5398 89.0306 17.5637 89.2376 17.5637C89.3642 17.5637 89.4915 17.5637 89.6188 17.5553C89.7461 17.5476 89.8727 17.532 90 17.5003V18.8747C89.8014 18.8986 89.6027 18.9142 89.4202 18.9375C89.2277 18.96 89.034 18.9706 88.8403 18.9692C88.3639 18.9692 87.9821 18.9219 87.696 18.8359C87.4106 18.7492 87.1798 18.6159 87.021 18.4431C86.8545 18.2703 86.751 18.0581 86.6874 17.7986C86.6256 17.5068 86.5912 17.2098 86.5845 16.9115V12.1582H85.2262V10.8149H85.2101V10.8169Z" fill="white"/>
<path d="M21.5505 7.74465H13.3213L10.7794 0L8.22857 7.74529L0 7.73688L6.6645 12.5277L4.11493 20.2639L10.7794 15.4809L17.4362 20.2639L14.8944 12.5277L21.5505 7.74465Z" fill="#04DA8D"/>
<path d="M15.4658 14.2799L14.8937 12.5283L10.7794 15.4815L15.4658 14.2799Z" fill="#126849"/>
</g>
<defs>
<clipPath id="clip0_197_349">
<rect width="90" height="22" fill="white"/>
</clipPath>
</defs>
</svg>
